<svg version="1.1" viewBox="0.0 0.0 512.0 512.0" fill="none" stroke="none" stroke-linecap="square" stroke-miterlimit="10" xmlns:xlink="http://www.w3.org/1999/xlink" xmlns="http://www.w3.org/2000/svg"><clipPath id="p.0"><path d="m0 0l512.0 0l0 512.0l-512.0 0l0 -512.0z" clip-rule="nonzero"/></clipPath><g clip-path="url(#p.0)"><path fill="#000000" fill-opacity="0.0" d="m0 0l512.0 0l0 512.0l-512.0 0z" fill-rule="evenodd"/><path fill="#efefef" d="m8.32 92.6l426.4453 0l0 329.02454c-213.21118 0 -213.21118 126.59201 -426.4453 63.29599zm35.133865 0l0 -42.656l423.5328 0l0 331.08853c-16.099182 0 -32.221344 2.293335 -32.221344 2.293335l0 -290.72586zm33.024002 -42.656l0 -41.624l427.20212 0l0 330.05652c-18.34665 0 -36.69333 1.7200012 -36.69333 1.7200012l0 -290.15253z" fill-rule="evenodd"/><path fill="#000000" fill-opacity="0.0" d="m8.32 92.6l426.4453 0l0 329.02454c-213.21118 0 -213.21118 126.59201 -426.4453 63.29599zm35.133865 0l0 -42.656l423.5328 0l0 331.08853c-16.099182 0 -32.221344 2.293335 -32.221344 2.293335m-358.28745 -333.38187l0 -41.624l427.20212 0l0 330.05652c-18.34665 0 -36.69333 1.7200012 -36.69333 1.7200012" fill-rule="evenodd"/><path fill="#000000" fill-opacity="0.0" d="m8.32 484.92053c213.23413 63.29602 213.23413 -63.29599 426.4453 -63.29599l0 -38.298676c0 0 16.122162 -2.293335 32.221344 -2.293335l0 -40.936005c0 0 18.34668 -1.7200012 36.69333 -1.7200012l0 -330.05652l-427.20212 0l0 41.624l-33.024002 0l0 42.656l-35.133865 0z" fill-rule="evenodd"/><path stroke="#000000" stroke-width="16.0" stroke-linejoin="round" stroke-linecap="butt" d="m8.32 92.6l426.4453 0l0 329.02454c-213.21118 0 -213.21118 126.59201 -426.4453 63.29599zm35.133865 0l0 -42.656l423.5328 0l0 331.08853c-16.099182 0 -32.221344 2.293335 -32.221344 2.293335m-358.28745 -333.38187l0 -41.624l427.20212 0l0 330.05652c-18.34665 0 -36.69333 1.7200012 -36.69333 1.7200012" fill-rule="evenodd"/></g></svg>