<svg version="1.1" viewBox="0.0 0.0 512.0 512.0" fill="none" stroke="none" stroke-linecap="square" stroke-miterlimit="10" xmlns:xlink="http://www.w3.org/1999/xlink" xmlns="http://www.w3.org/2000/svg"><clipPath id="p.0"><path d="m0 0l512.0 0l0 512.0l-512.0 0l0 -512.0z" clip-rule="nonzero"/></clipPath><g clip-path="url(#p.0)"><path fill="#000000" fill-opacity="0.0" d="m0 0l512.0 0l0 512.0l-512.0 0z" fill-rule="evenodd"/><path fill="#efefef" d="m92.531654 148.1563l281.45316 0l0 217.1556c-140.71901 0 -140.71901 83.550476 -281.45316 41.775238zm23.188286 0l0 -28.152878l279.53088 0l0 218.51782c-10.625458 0 -21.266022 1.5136108 -21.266022 1.5136108l0 -191.87856zm21.795776 -28.152878l0 -27.471764l281.95264 0l0 217.8367c-12.108765 0 -24.21753 1.1352234 -24.21753 1.1352234l0 -191.50015z" fill-rule="evenodd"/><path fill="#000000" fill-opacity="0.0" d="m92.531654 148.1563l281.45316 0l0 217.1556c-140.71901 0 -140.71901 83.550476 -281.45316 41.775238zm23.188286 0l0 -28.152878l279.53088 0l0 218.51782c-10.625458 0 -21.266022 1.5136108 -21.266022 1.5136108m-236.46909 -220.03143l0 -27.471764l281.95264 0l0 217.8367c-12.108765 0 -24.21753 1.1352234 -24.21753 1.1352234" fill-rule="evenodd"/><path fill="#000000" fill-opacity="0.0" d="m92.531654 407.08713c140.73413 41.775238 140.73413 -41.775238 281.45316 -41.775238l0 -25.277039c0 0 10.640564 -1.5136108 21.266022 -1.5136108l0 -27.01767c0 0 12.108765 -1.1352234 24.21753 -1.1352234l0 -217.8367l-281.95264 0l0 27.471764l-21.795776 0l0 28.152878l-23.188286 0z" fill-rule="evenodd"/><path stroke="#000000" stroke-width="16.0" stroke-linejoin="round" stroke-linecap="butt" d="m92.531654 148.1563l281.45316 0l0 217.1556c-140.71901 0 -140.71901 83.550476 -281.45316 41.775238zm23.188286 0l0 -28.152878l279.53088 0l0 218.51782c-10.625458 0 -21.266022 1.5136108 -21.266022 1.5136108m-236.46909 -220.03143l0 -27.471764l281.95264 0l0 217.8367c-12.108765 0 -24.21753 1.1352234 -24.21753 1.1352234" fill-rule="evenodd"/></g></svg>